<svg id="Layer_1" data-name="Layer 1" xmlns="http://www.w3.org/2000/svg" viewBox="0 0 1155.61 219.27">
    <defs>
        <style>.cls-1{fill:#FFF;}</style>
    </defs>
    <title>logo_stonebankingapi</title>
    <path class="cls-1" d="M1163,225.88H7.39V6.61H1163ZM16.63,215.73H1153.76v-199H16.63Z"
          transform="translate(-7.39 -6.61)"/>
    <path class="cls-1"
          d="M1073.38,126.54c0,23.25-14,34.5-31.72,34.5a39.54,39.54,0,0,1-14.15-2.4c.13,9.6.13,19.08.25,28.55h-12.38c.13-11.25.25-22.49.25-33.61V120.73c0-7.33-.13-16.56-.25-24.9h12.38v6.7a26.09,26.09,0,0,1,19.08-8.08c15.54,0,26.53,11.12,26.53,32.09m-12.76.88c0-16-7.83-22.74-18.7-22.74a25.48,25.48,0,0,0-14.27,4.42c0,10.73-.13,21.6-.13,32.35v7.83a38.7,38.7,0,0,0,12.39,2.27c12.76,0,20.72-7.83,20.72-24.14"
          transform="translate(-7.39 -6.61)"/>
    <path class="cls-1"
          d="M1007.88,158a17.46,17.46,0,0,1-9.6,2.52c-7.71,0-10.62-3.78-11.5-8.08a28.43,28.43,0,0,1-20.47,8.35c-10.49,0-18.19-5.94-18.19-17.19,0-12.38,9.22-17.31,23.75-19.59l14.66-2.27v-3.16c0-9.22-3.54-13.77-14.91-13.77a45,45,0,0,0-18.95,4.42l-1.9-10.11a60.74,60.74,0,0,1,23.13-4.55c19.71,0,24.51,9.48,24.51,20.72,0,13.53-.25,25.53-.25,28.93,0,4,1,6.45,4.55,6.45a13.62,13.62,0,0,0,4.93-1Zm-36.77-6.7c4.55,0,10-1.64,15.29-4.93.13-4,.13-10.62.13-16.55l-14.15,2.27c-8.72,1.52-12.26,4.43-12.26,10.24,0,6.19,4.06,9,11,9"
          transform="translate(-7.39 -6.61)"/>
    <path class="cls-1"
          d="M1081.4,77.38c0-4.81,3.79-7.46,8.47-7.46s8.46,2.65,8.46,7.46-3.79,7.58-8.46,7.58-8.47-2.66-8.47-7.58m2.4,83.27c.38-21.23.38-42.58,0-63.81h12.38c-.25,21.24-.25,42.59,0,63.81Z"
          transform="translate(-7.39 -6.61)"/>
    <path class="cls-1"
          d="M494.75,126.22c0,21.35-12.89,35-34.88,35-7.71,0-16.93-1.77-22-4.81.12-8.21.25-16.55.25-25V95.13c0-8.34-.13-16.56-.25-24.89h12.38c-.12,10.24-.12,20.34-.12,30.58,4.17-3.66,9.85-6.07,17.43-6.07,14.91,0,27.17,9.48,27.17,31.47m-12.38,1.26c0-15.8-7.84-23.51-19.59-23.51a28.68,28.68,0,0,0-12.63,2.91c-.13,14.41,0,28.93.12,43.34a33.33,33.33,0,0,0,10.1,1.77c14,0,22-9,22-24.51"
          transform="translate(-7.39 -6.61)"/>
    <path class="cls-1"
          d="M566.88,158.19a17.46,17.46,0,0,1-9.6,2.52c-7.71,0-10.62-3.78-11.5-8.08A28.43,28.43,0,0,1,525.31,161c-10.49,0-18.19-5.94-18.19-17.19,0-12.38,9.22-17.31,23.75-19.59l14.66-2.27v-3.16c0-9.22-3.54-13.77-14.91-13.77a45,45,0,0,0-18.95,4.42l-1.9-10.11a60.74,60.74,0,0,1,23.13-4.55c19.71,0,24.51,9.48,24.51,20.72,0,13.53-.25,25.53-.25,28.93,0,4,1,6.45,4.55,6.45a13.62,13.62,0,0,0,4.93-1Zm-36.77-6.7c4.55,0,10-1.64,15.29-4.93.13-4,.13-10.62.13-16.55l-14.15,2.27c-8.72,1.52-12.26,4.43-12.26,10.24,0,6.19,4.06,9,11,9"
          transform="translate(-7.39 -6.61)"/>
    <path class="cls-1"
          d="M621.59,159.83c.25-7.2.25-14.53.25-21.86V119.14c0-10.23-5.68-14.15-14.4-14.15A24.55,24.55,0,0,0,591.89,110c-.25,12.64-.13,31.22.13,49.78H579.64c.13-5.94.25-12,.25-18.19V112.06c-.12-5.18-.12-10.61-.25-16h12.25l-.13,7.83A28,28,0,0,1,613,94.63c13,0,21,7.58,21,22.75v20.47c0,6.56,0,17.69.13,22Z"
          transform="translate(-7.39 -6.61)"/>
    <path class="cls-1"
          d="M668,70.24c-.38,26.79-.38,62.68,0,89.59H655.83c.38-26.91.38-62.79,0-89.59Zm44.48,88.83-14.91.88c-9.6-10.73-19.08-21.48-28.81-32.22,9.34-10.61,18.7-21.1,27.93-31.72l14.53,1.14-28,29.57c9.73,10.74,19.58,21.48,29.31,32.35"
          transform="translate(-7.39 -6.61)"/>
    <path class="cls-1"
          d="M723.4,76.56c0-4.81,3.79-7.46,8.47-7.46s8.46,2.65,8.46,7.46-3.79,7.58-8.46,7.58-8.47-2.66-8.47-7.58m2.4,83.27c.38-21.23.38-42.58,0-63.81h12.38c-.25,21.24-.25,42.59,0,63.81Z"
          transform="translate(-7.39 -6.61)"/>
    <path class="cls-1"
          d="M802.63,159.83c.25-7.2.25-14.53.25-21.86V119.14c0-10.23-5.69-14.15-14.4-14.15A24.55,24.55,0,0,0,772.93,110c-.25,12.64-.13,31.22.13,49.78H760.68c.13-5.94.25-12,.25-18.19V112.06c-.12-5.18-.12-10.61-.25-16h12.25l-.13,7.83A28,28,0,0,1,794,94.63c13,0,21,7.58,21,22.75v20.47c0,6.56,0,17.69.13,22Z"
          transform="translate(-7.39 -6.61)"/>
    <path class="cls-1"
          d="M892.84,166.78c0,13.65-14.66,21.23-32.35,21.23-13.53,0-30.2-4.29-30.2-17.43,0-9.1,6.45-13.64,15.79-16.3a9.06,9.06,0,0,1-4.8-8.21c0-4.67,2.91-8.21,7.46-10.24-9.23-2.65-15.67-9.35-15.67-19.2,0-13.15,11.12-21.49,27.68-21.49,5.05,0,10.23.76,22.11.76h9.22l-.75,9.35h-.76c-5.94,0-7.71-.25-11.88-.5v.38c3,2.4,5.18,6.44,5.18,11.88,0,11.5-10.48,20.22-25.39,20.22h-.76c-4.42,1.26-6.32,3-6.32,5.43,0,4.17,7,5.18,15.41,6.45,12,1.89,26,4.17,26,17.68m-12.65.88c0-7-8.21-8-18.19-9.47-2.4-.38-4.8-.63-7.08-1.14-7.45,2.77-12,5.94-12,11.5,0,7.58,37.28,6.32,37.28-.89m-22.11-38.91c7.2,0,13.77-4.93,13.77-12.77,0-7.32-5.3-12.13-13.14-12.13s-13.52,4.81-13.52,12.64c0,8.34,6.19,12.26,12.89,12.26"
          transform="translate(-7.39 -6.61)"/>
    <path class="cls-1"
          d="M250.21,156.42h13.42a1,1,0,0,0,1-.94V118.42c0-10.51,5.16-16,14.07-16s14,5.53,14,16v37.06a1,1,0,0,0,1,.94h13.42a1,1,0,0,0,1-.94v-37c0-15.86-8.82-29.74-29.46-29.74s-29.55,13.89-29.55,29.74v37a1,1,0,0,0,1,.94"
          transform="translate(-7.39 -6.61)"/>
    <path class="cls-1"
          d="M157.89,157.26c4.88,0,8.07-.56,9.48-1.13a1.2,1.2,0,0,0,.75-1V144c0-.66-.29-1-1.13-1-.66,0-2.53.38-4,.38-5.82,0-8.35-2.16-8.35-7.22V104.91H167a1,1,0,0,0,1-1V91.77a1,1,0,0,0-1-1H154.14V80.23c0-1.13-.47-1.6-1.31-1.6H140.16c-1,0-1.5.47-1.5,1.6v57.51c0,14,7.79,19.52,19.23,19.52"
          transform="translate(-7.39 -6.61)"/>
    <path class="cls-1"
          d="M104,158c15.11,0,25.89-9.29,25.89-21.39,0-13.61-9-17.54-21.29-20.17l-6.1-1.31c-4.6-1-7.13-3.19-7.13-6.85,0-4.69,4.69-7.22,11.16-7.22,9.1,0,15.29,4.13,16.23,4.13a1.45,1.45,0,0,0,1.22-.84l2.44-9.1c.47-1.22.38-1.5-.47-2-5.44-2.81-11.26-4.41-19.51-4.41-15.3,0-25.9,8.82-25.9,20.55,0,11.07,8.54,17.17,20.74,19.79l6.19,1.31c5,1,7.78,3,7.78,7.22s-3.38,8.07-11.35,8.07c-11.26,0-19-4.5-20.17-4.5-.75,0-1,.38-1.31,1.59l-1.59,7.6c-.47,1.59,0,2.63,1,3.1C85.74,155.76,96.25,158,104,158"
          transform="translate(-7.39 -6.61)"/>
    <path class="cls-1"
          d="M206.4,145c-9.85,0-18.86-7.41-18.86-21.39s9-21.2,18.86-21.2,18.77,7.22,18.77,21.2S216.34,145,206.4,145m0,13.51c19.7,0,34.06-14.73,34.06-34.9S226.1,88.77,206.4,88.77s-34.06,14.64-34.06,34.81,14.45,34.9,34.06,34.9"
          transform="translate(-7.39 -6.61)"/>
    <path class="cls-1"
          d="M349.81,158.48c14.17,0,23.36-5.63,27.4-12.39.84-1.41,1.13-1.88,1.13-2.25s-.19-.66-1-1.41l-5.91-5.16c-1.41-1.22-1.88-1.59-2.35-1.59s-.75.28-1.13.75A20.33,20.33,0,0,1,350.65,145c-11.17,0-18-8.82-18-22.61,0-10.88,5.82-20.55,17.17-20.55s16.89,8.64,15.86,17.27l4.32-2.72H328.79v11.54h46.82c4.88,0,5.63-1.41,5.63-5.07,0-20.74-11.91-34.06-30.87-34.06-17.82,0-33.21,13.7-33.21,34.52,0,22.24,15.76,35.18,32.65,35.18"
          transform="translate(-7.39 -6.61)"/>
</svg>
