<svg width="377" height="65" viewBox="0 0 377 65" fill="none" xmlns="http://www.w3.org/2000/svg">
<g clip-path="url(#clip0)">
<path d="M0 0V65H376.494V0H0ZM373.484 61.9958H3.00976V3.0042H373.484V61.9958Z" fill="white"/>
<path d="M131.609 43.4244C136.807 43.4244 140.911 40.1471 140.911 33.3193C140.911 26.4916 136.807 23.7605 131.882 23.7605C126.41 23.7605 122.306 27.3109 122.306 33.8655C122.306 39.8739 125.863 43.4244 131.609 43.4244ZM131.882 26.7647C135.166 26.7647 137.081 28.9496 137.081 33.3193C137.081 38.2353 134.892 40.4202 131.609 40.4202C128.325 40.4202 126.136 38.2353 126.136 33.5924C126.136 29.2227 128.599 26.7647 131.882 26.7647Z" fill="white"/>
<path d="M145.837 51.3446H149.394C149.394 48.6135 149.394 45.6093 149.394 42.8782C150.488 43.4244 151.856 43.6976 153.498 43.6976C158.696 43.6976 162.801 40.4202 162.801 33.5925C162.801 27.311 159.517 24.0337 154.866 24.0337C152.403 24.0337 150.488 25.1261 149.12 26.4917V24.0337H145.563C145.563 26.4917 145.563 29.2228 145.563 31.4076V41.2396C146.11 44.5169 146.11 47.7942 145.837 51.3446ZM149.667 37.6892C149.667 34.4118 149.667 31.4076 149.667 28.1303C150.762 27.311 152.13 26.7648 153.771 26.7648C157.055 26.7648 159.244 28.6765 159.244 33.5925C159.244 38.5085 156.781 40.6934 153.224 40.6934C151.856 40.6934 150.488 40.4202 149.667 40.1471V37.6892Z" fill="white"/>
<path d="M176.481 43.4245C179.217 43.4245 181.406 42.6052 182.774 41.5128L183.048 38.2354C181.406 39.601 179.217 40.1472 177.029 40.1472C173.472 40.1472 170.462 38.2354 170.462 33.5926H183.322C183.322 33.0464 183.595 31.9539 183.595 30.8615C183.595 25.9455 180.586 23.4875 175.934 23.4875C170.188 23.4875 166.905 27.5842 166.905 33.5926C166.905 40.4203 171.009 43.4245 176.481 43.4245ZM175.66 26.7649C177.849 26.7649 180.038 28.1304 180.038 30.8615V31.1346H170.735C171.283 28.4035 173.198 26.7649 175.66 26.7649Z" fill="white"/>
<path d="M188.52 43.1513H192.077C192.077 37.6891 192.077 32.2269 192.077 28.4034C193.171 27.584 194.54 27.0378 196.728 27.0378C199.191 27.0378 201.106 28.1302 201.106 31.1344V36.5966C201.106 38.7815 201.106 40.9664 201.106 43.1513H204.937C204.937 41.7857 204.937 38.5084 204.937 36.5966V30.5882C204.937 26.2185 202.474 23.7605 198.644 23.7605C195.634 23.7605 193.719 25.126 192.351 26.4916V24.3067H188.794C188.794 25.9454 188.794 27.584 188.794 28.9496V37.6891C188.52 39.6008 188.52 41.2395 188.52 43.1513Z" fill="white"/>
<path d="M219.712 42.0588C221.08 42.8782 223.817 43.4244 226.279 43.4244C232.846 43.4244 236.676 39.3277 236.676 33.0462C236.676 26.4916 233.119 23.7605 228.742 23.7605C226.553 23.7605 224.911 24.5798 223.543 25.6723C223.543 22.6681 223.543 19.6639 223.543 16.6597H219.986C219.986 19.1177 219.986 21.5756 219.986 24.0336V34.6849C219.712 37.1429 219.712 39.6008 219.712 42.0588ZM227.1 26.4916C230.657 26.4916 232.846 28.6765 232.846 33.3193C232.846 37.9622 230.383 40.6933 226.279 40.6933C225.185 40.6933 224.09 40.4202 223.269 40.1471C223.269 35.7773 223.269 31.6807 223.269 27.3109C224.09 27.0378 225.458 26.4916 227.1 26.4916Z" fill="white"/>
<path d="M247.348 32.5001C242.97 33.0463 240.234 34.685 240.234 38.2354C240.234 41.5127 242.423 43.4244 245.706 43.4244C248.169 43.4244 250.084 42.6051 251.726 40.9665C251.999 42.332 252.82 43.4244 255.009 43.4244C256.377 43.4244 257.198 43.1513 257.745 42.6051V40.1471C257.472 40.4202 256.924 40.4202 256.377 40.4202C255.283 40.4202 255.009 39.6009 255.009 38.5085C255.009 37.416 255.009 33.8656 255.009 30.0421C255.009 26.7648 253.641 24.0337 247.621 24.0337C244.612 24.0337 242.149 24.853 240.781 25.3992L241.328 28.4034C242.696 27.5841 244.885 27.0379 247.074 27.0379C250.358 27.0379 251.452 28.4034 251.452 31.1345V31.9539L247.348 32.5001ZM251.726 39.0547C250.084 40.1471 248.442 40.4202 247.074 40.4202C244.885 40.4202 243.791 39.6009 243.791 37.6892C243.791 36.0505 244.885 35.2312 247.348 34.685L251.452 34.1387C251.726 36.0505 251.726 37.9623 251.726 39.0547Z" fill="white"/>
<path d="M261.849 43.1513H265.406C265.406 37.6891 265.406 32.2269 265.406 28.4034C266.501 27.584 267.869 27.0378 270.058 27.0378C272.52 27.0378 274.435 28.1302 274.435 31.1344V36.5966C274.435 38.7815 274.435 40.9664 274.435 43.1513H278.266C278.266 41.7857 278.266 38.5084 278.266 36.5966V30.5882C278.266 26.2185 275.803 23.7605 271.973 23.7605C268.963 23.7605 267.048 25.126 265.68 26.4916V24.3067H262.123C262.123 25.9454 262.123 27.584 262.123 28.9496V37.6891C261.849 39.6008 261.849 41.2395 261.849 43.1513Z" fill="white"/>
<path d="M301.25 42.8781C298.24 39.6008 295.504 36.5966 292.494 33.3192L300.702 24.5798L296.325 24.3066C293.588 27.584 290.852 30.5882 288.116 33.5924C291.126 36.8697 293.862 39.8739 296.598 43.1512L301.25 42.8781Z" fill="white"/>
<path d="M287.842 43.1513C287.842 35.2311 287.842 24.5798 287.842 16.6597H284.285C284.285 24.5798 284.285 35.2311 284.285 43.1513H287.842Z" fill="white"/>
<path d="M306.996 20.7562C308.364 20.7562 309.458 19.9369 309.458 18.5713C309.458 17.2058 308.364 16.3865 306.996 16.3865C305.628 16.3865 304.533 17.2058 304.533 18.5713C304.533 19.9369 305.628 20.7562 306.996 20.7562Z" fill="white"/>
<path d="M305.08 43.1512H308.637C308.637 36.8697 308.637 30.5882 308.637 24.3066H305.08C305.354 30.315 305.354 36.8697 305.08 43.1512Z" fill="white"/>
<path d="M315.478 43.1513H319.035C319.035 37.6891 319.035 32.2269 319.035 28.4034C320.129 27.584 321.497 27.0378 323.686 27.0378C326.149 27.0378 328.064 28.1302 328.064 31.1344V36.5966C328.064 38.7815 328.064 40.9664 328.064 43.1513H331.894C331.894 41.7857 331.894 38.5084 331.894 36.5966V30.5882C331.894 26.2185 329.432 23.7605 325.601 23.7605C322.592 23.7605 320.676 25.126 319.308 26.4916V24.3067H315.751C315.751 25.9454 315.751 27.584 315.751 28.9496V37.6891C315.478 39.6008 315.478 41.2395 315.478 43.1513Z" fill="white"/>
<path d="M335.999 46.1555C335.999 49.9791 340.924 51.3446 345.028 51.3446C350.227 51.3446 354.604 49.1597 354.604 45.0631C354.604 40.9665 350.5 40.4202 346.943 39.874C344.481 39.6009 342.292 39.3278 342.292 37.9623C342.292 37.1429 342.839 36.5967 344.207 36.3236H344.481C348.858 36.3236 352.142 33.8656 352.142 30.3152C352.142 28.6765 351.595 27.5841 350.5 26.7648C351.868 26.7648 352.142 27.0379 354.057 27.0379H354.331L354.604 24.3068H351.868C348.311 24.3068 346.943 24.0337 345.301 24.0337C340.376 24.0337 337.093 26.4917 337.093 30.3152C337.093 33.3194 339.008 35.2312 341.744 36.0505C340.376 36.5967 339.556 37.6892 339.556 39.0547C339.556 40.1471 340.103 40.9665 340.924 41.5127C337.914 42.332 335.999 43.4244 335.999 46.1555ZM340.65 30.3152C340.65 28.1303 342.292 26.4917 344.754 26.4917C347.217 26.4917 348.585 27.8572 348.585 30.0421C348.585 32.227 346.67 33.8656 344.481 33.8656C342.292 33.8656 340.65 32.7732 340.65 30.3152ZM343.386 42.332C343.933 42.6051 344.754 42.6051 345.575 42.6051C348.585 43.1513 351.047 43.4244 351.047 45.3362C351.047 47.5211 348.585 48.6135 345.301 48.6135C342.839 48.6135 339.829 47.7942 339.829 45.6093C339.829 43.9707 341.197 43.1513 343.386 42.332Z" fill="white"/>
<path d="M71.9606 43.4245H76.0648C76.3385 43.4245 76.3385 43.4245 76.3385 43.1514V32.227C76.3385 29.2228 77.9801 27.5842 80.4427 27.5842C82.9052 27.5842 84.5469 29.2228 84.5469 32.227V43.1514C84.5469 43.4245 84.8205 43.4245 84.8205 43.4245H88.9247C89.1983 43.4245 89.1983 43.4245 89.1983 43.1514V32.227C89.1983 27.5842 86.4622 23.4875 80.4427 23.4875C74.4232 23.4875 71.687 27.5842 71.687 32.227V43.1514C71.687 43.1514 71.9606 43.4245 71.9606 43.4245Z" fill="white"/>
<path d="M44.5994 43.6974C45.9675 43.6974 47.0619 43.4243 47.3356 43.4243C47.6092 43.4243 47.6092 43.1511 47.6092 43.1511V39.8738C47.6092 39.6007 47.6092 39.6007 47.3356 39.6007C47.0619 39.6007 46.5147 39.6007 46.2411 39.6007C44.5994 39.6007 43.7786 39.0545 43.7786 37.4158V28.1301H47.3356C47.6092 28.1301 47.6092 27.857 47.6092 27.857V24.3066C47.6092 24.0335 47.3356 24.0335 47.3356 24.0335H43.505V20.7562C43.505 20.4831 43.2313 20.21 43.2313 20.21H39.4007C39.1271 20.21 38.8535 20.4831 38.8535 20.7562V37.689C38.8535 42.0587 41.316 43.6974 44.5994 43.6974Z" fill="white"/>
<path d="M27.9087 35.2309L29.824 35.504C31.1921 35.7771 32.0129 36.3234 32.0129 37.6889C32.0129 39.0545 30.9185 40.1469 28.7296 40.1469C25.4462 40.1469 22.9837 38.7813 22.7101 38.7813C22.4364 38.7813 22.4364 38.7813 22.4364 39.3276L21.8892 41.5124C21.6156 42.0587 21.8892 42.3318 22.1628 42.3318C23.2573 42.878 26.5407 43.6973 28.7296 43.6973C33.1074 43.6973 36.3908 40.9662 36.3908 37.4158C36.3908 33.3192 33.6546 32.2267 30.0976 31.4074L28.1823 31.1343C26.8143 30.8612 25.9934 30.315 25.9934 29.2225C25.9934 27.857 27.3615 27.0376 29.2768 27.0376C32.0129 27.0376 33.9282 28.1301 34.2019 28.1301C34.4755 28.1301 34.4755 28.1301 34.4755 27.857L35.2963 25.1259C35.5699 24.8528 35.5699 24.8528 35.2963 24.5797C33.6546 23.7603 32.0129 23.2141 29.5504 23.2141C24.899 23.2141 21.8892 25.9452 21.8892 29.2225C21.6156 32.7729 24.3517 34.4116 27.9087 35.2309Z" fill="white"/>
<path d="M59.1008 43.9704C64.8467 43.9704 69.2245 39.6007 69.2245 33.5923C69.2245 27.5839 64.8467 23.2141 59.1008 23.2141C53.3549 23.2141 48.9771 27.5839 48.9771 33.5923C48.9771 39.6007 53.3549 43.9704 59.1008 43.9704ZM59.1008 27.3108C62.1105 27.3108 64.5731 29.4956 64.5731 33.5923C64.5731 37.6889 61.8369 39.8738 59.1008 39.8738C56.091 39.8738 53.6285 37.6889 53.6285 33.5923C53.6285 29.4956 56.091 27.3108 59.1008 27.3108Z" fill="white"/>
<path d="M101.511 43.9704C105.615 43.9704 108.351 42.3318 109.72 40.42C109.993 39.8738 109.993 39.8738 109.993 39.8738C109.993 39.8738 109.993 39.6007 109.72 39.3276L108.078 37.6889C107.531 37.4158 107.531 37.1427 107.257 37.1427C106.983 37.1427 106.983 37.1427 106.983 37.4158C105.889 39.0544 104.247 39.8738 101.785 39.8738C99.0486 39.8738 97.1333 37.962 96.586 34.6847H109.172C110.54 34.6847 110.814 34.1385 110.814 33.3192C110.814 27.3107 107.257 23.2141 101.785 23.2141C96.586 23.2141 91.9346 27.3107 91.9346 33.3192C91.9346 40.1469 96.586 43.9704 101.511 43.9704ZM101.511 27.0376C104.521 27.0376 106.163 28.9494 106.163 31.4074H96.586C97.1333 28.9494 98.7749 27.0376 101.511 27.0376Z" fill="white"/>
</g>
<defs>
<clipPath id="clip0">
<rect width="376.493" height="65" fill="white"/>
</clipPath>
</defs>
</svg>
