<svg width="107" height="40" viewBox="0 0 107 40" fill="none" xmlns="http://www.w3.org/2000/svg">
<path d="M98.3724 0.00166561C97.979 -0.025802 97.6409 0.290076 97.6409 0.68149V4.36216C97.6409 4.69863 97.8824 4.99391 98.2136 5.03511C100.27 5.30979 101.857 7.06085 101.857 9.17586C101.857 11.2909 100.27 13.0419 98.2136 13.3166C97.8824 13.3647 97.6409 13.66 97.6409 13.9896V17.6702C97.6409 18.0685 97.979 18.3844 98.3724 18.3501C103.155 17.9792 106.923 14.0102 106.923 9.17586C106.916 4.34155 103.155 0.372479 98.3724 0.00166561Z" fill="white"/>
<path d="M94.8253 18.1578L86.91 10.2814C86.3027 9.67715 86.3027 8.69518 86.91 8.09089L94.8253 0.21454C95.2601 -0.218076 95.9985 0.0909355 95.9985 0.695224V17.6702C95.9985 18.2814 95.2601 18.5835 94.8253 18.1578Z" fill="white"/>
<path d="M1.91845 33.7457C0.821207 33.7457 0 34.604 0 35.6547C0 36.4306 0.393351 37.0143 0.904018 37.289C3.29173 38.9233 6.1487 39.7336 8.77795 39.7405C13.091 39.7405 16.4587 37.6049 16.4587 33.2856V33.2101C16.4587 29.5157 13.0496 28.156 10.0339 27.2221C9.90512 27.181 9.77687 27.1403 9.64947 27.0998C7.37398 26.3774 5.3689 25.7408 5.3689 24.3037V24.2281C5.3689 23.0608 6.42474 22.2024 8.26728 22.2024C9.71647 22.2024 11.4417 22.7449 13.1255 23.6032C13.4361 23.7612 13.6707 23.8367 14.064 23.8367C15.1613 23.8367 16.0239 23.0196 16.0239 21.9277C16.0239 21.1106 15.5477 20.4857 14.8852 20.1355C12.8909 19.0848 10.5791 18.4599 8.3846 18.4599C4.27166 18.4599 1.02133 20.8359 1.02133 24.7226V24.805C1.02133 28.7328 4.43038 29.9757 7.48748 30.8341C7.64123 30.8806 7.79404 30.9264 7.94541 30.9717C10.1853 31.6425 12.1111 32.2192 12.1111 33.7113V33.7869C12.1111 35.1465 10.931 36.0049 8.89526 36.0049C7.01132 36.0049 4.94105 35.3457 2.93978 34.0204C2.66375 33.8624 2.3118 33.7457 1.91845 33.7457Z" fill="white"/>
<path fill-rule="evenodd" clip-rule="evenodd" d="M40.4738 18.3775C34.125 18.3775 29.4254 23.2462 29.4254 29.1174V29.1929C29.4254 35.0298 34.0836 39.816 40.391 39.8092C46.7812 39.8092 51.4807 34.9474 51.4807 29.1105V29.035C51.4807 23.1638 46.8226 18.3775 40.4738 18.3775ZM40.391 22.5045C44.1175 22.5045 46.7398 25.4985 46.7398 29.1174V29.1929C46.7398 32.7362 44.3107 35.689 40.4669 35.689C36.7818 35.689 34.1595 32.695 34.1595 29.1174V29.0418C34.1595 25.4642 36.5886 22.5045 40.391 22.5045Z" fill="white"/>
<path d="M58.0987 27.2908V37.186C58.0987 38.4907 57.036 39.5414 55.7248 39.5482C54.4205 39.5482 53.3578 38.4907 53.3578 37.1929V27.641C53.3578 22.5457 57.5121 18.4187 62.6395 18.4187C67.7669 18.4187 71.9212 22.5526 71.9212 27.641V37.1929C71.9212 38.4976 70.8654 39.5482 69.5542 39.5482C68.2499 39.5482 67.1872 38.4907 67.1872 37.1929V27.174C67.1872 24.5097 64.8685 22.3878 62.1288 22.69C59.8101 22.944 58.0987 24.9766 58.0987 27.2908Z" fill="white"/>
<path d="M27.3483 23.0882C28.5352 23.0882 29.5014 22.1337 29.5014 20.9458C29.5014 19.7646 28.5352 18.8033 27.3483 18.8033H23.7046V15.3218C23.7046 14.0239 22.6419 12.9664 21.3376 12.9664C20.0264 12.9664 18.9706 14.017 18.9706 15.3218V32.6538H18.9844C19.1017 36.4375 22.0346 39.5208 26.0578 39.7886C26.1613 39.8023 26.2717 39.816 26.3822 39.816H27.3069C28.5214 39.816 29.5083 38.8341 29.5083 37.6255C29.5083 36.4169 28.5214 35.4349 27.3069 35.4349H26.6651C24.9744 35.4349 23.7667 34.089 23.7115 32.4616V23.0882H27.3483Z" fill="white"/>
<path d="M83.7562 30.7586C82.6314 30.7586 81.7205 29.8521 81.7205 28.7328C81.7205 27.6204 82.6314 26.714 83.7424 26.714H88.8836C88.2073 24.2625 86.4752 22.5045 84.0047 22.5045C80.2713 22.5045 78.2286 25.4642 78.2286 29.0418V29.1174C78.2286 32.695 80.8096 35.689 84.4325 35.689C86.0681 35.689 87.4344 35.1397 88.4696 34.2264C89.2908 33.5053 90.5122 33.4847 91.3334 34.2058C92.3341 35.0847 92.2858 36.6504 91.2368 37.4813C89.3943 38.9371 87.0273 39.816 84.3566 39.816C78.1527 39.816 73.5705 35.0298 73.5705 29.1929V29.1174C73.5705 23.2393 77.8491 18.3775 84.0875 18.3775C89.5806 18.3775 93.5279 22.8616 93.5279 28.7328C93.5279 29.8521 92.617 30.7586 91.4922 30.7586H83.7562Z" fill="white"/>
</svg>
